<svg width="26" height="26" viewBox="0 0 26 26" fill="none" xmlns="http://www.w3.org/2000/svg">
<path fill-rule="evenodd" clip-rule="evenodd" d="M11 0.483398L21.2397 4.87185L13 9.58026V13.9999H18C19.6569 13.9999 21 15.3431 21 16.9999C21 18.6568 19.6569 19.9999 18 19.9999H8C7.44772 19.9999 7 20.4477 7 20.9999C7 21.5522 7.44772 21.9999 8 21.9999H19V20.9999H21V24.9999H19V23.9999H8C6.34315 23.9999 5 22.6568 5 20.9999C5 19.3431 6.34315 17.9999 8 17.9999H18C18.5523 17.9999 19 17.5522 19 16.9999C19 16.4477 18.5523 15.9999 18 15.9999H9V13.9999H11V0.483398ZM13 7.27676L16.7603 5.12803L13 3.51648V7.27676Z" fill="white"/>
</svg>
