<svg width="16" height="16" viewBox="0 0 16 16" fill="none" xmlns="http://www.w3.org/2000/svg">
<path fill-rule="evenodd" clip-rule="evenodd" d="M3.63636 0C1.62806 0 0 1.62806 0 3.63636V12.3636C0 14.3719 1.62806 16 3.63636 16H12.3636C14.3719 16 16 14.3719 16 12.3636V3.63636C16 1.62806 14.3719 0 12.3636 0H3.63636ZM13.7273 3.49998C13.7273 4.17778 13.1778 4.72725 12.5 4.72725C11.8222 4.72725 11.2727 4.17778 11.2727 3.49998C11.2727 2.82217 11.8222 2.27271 12.5 2.27271C13.1778 2.27271 13.7273 2.82217 13.7273 3.49998ZM8 3.90907C5.74065 3.90907 3.90909 5.74063 3.90909 7.99998C3.90909 10.2593 5.74065 12.0909 8 12.0909C10.2593 12.0909 12.0909 10.2593 12.0909 7.99998C12.0909 5.74063 10.2593 3.90907 8 3.90907ZM5.54545 7.99998C5.54545 6.64437 6.64439 5.54543 8 5.54543C9.35561 5.54543 10.4545 6.64437 10.4545 7.99998C10.4545 9.35559 9.35561 10.4545 8 10.4545C6.64439 10.4545 5.54545 9.35559 5.54545 7.99998Z" fill="white"/>
</svg>
