<svg width="200" height="25" viewBox="0 0 200 25" fill="none" xmlns="http://www.w3.org/2000/svg">
<path d="M117.94 12.2216L122.426 5.51582L118.806 0.0951968L118.741 0H101.452V24.4432H107.849V6.40059H114.496L110.515 12.2216L118.691 24.4432H126.116L117.94 12.2216Z" fill="white"/>
<path d="M38.171 0H30.8324L22.6595 12.2216L30.8324 24.4432H38.171L29.998 12.2216L38.171 0Z" fill="white"/>
<path d="M19.532 0H13.1342V24.4432H19.532V0Z" fill="white"/>
<path d="M129.084 0V6.40059H135.515V24.4432H141.944V6.40059H148.375V0H129.084Z" fill="white"/>
<path d="M62.8549 0L55.8188 16.6426L55.8104 16.6202L55.8132 16.6146L48.791 0H42.1664L52.4981 24.4432H59.1451L69.4767 0H62.8549Z" fill="white"/>
<path d="M79.394 0L69.0623 24.4432H75.6869L82.7203 7.80054L89.7537 24.4432H96.3782L86.0466 0H79.394Z" fill="white"/>
<path d="M159.863 0L149.532 24.4432H156.153L163.19 7.80054L170.223 24.4432H176.845L166.513 0H159.863Z" fill="white"/>
<path d="M187.98 18.0454V0H181.582V24.4432L181.619 18.8686V24.4432L185.295 24.3956L185.326 24.4432H200V18.0454H187.98Z" fill="white"/>
<path d="M5.24966 18.6894V19.5377L1.51458 20.7837L5.24966 22.0101V22.864L0.0838305 24.4068V23.3876L3.76571 22.3489L0.0838305 21.1981V20.2965L3.77131 19.1178L0.0838305 18.0846V17.2138L5.24966 18.6894Z" fill="white"/>
<path d="M0.0838305 14.9879V11.9976H0.932202V14.0779H2.21736V12.2188H3.06573V14.0779H4.40129V11.9248H5.24966V14.9879H0.0838305Z" fill="white"/>
<path d="M1.42778 9.5365C0.652207 9.5365 0.00262887 8.93172 0.00262887 7.92655C-0.0114355 7.65353 0.0310435 7.38055 0.127404 7.12471C0.223764 6.86888 0.371928 6.6357 0.56261 6.4398L1.23459 6.93818C1.10893 7.05197 1.00898 7.19124 0.941389 7.3467C0.873796 7.50217 0.840119 7.67025 0.842601 7.83975C0.842601 8.29054 1.07219 8.56213 1.40258 8.56213C2.47215 8.56213 2.13336 6.22421 3.8525 6.22421C4.74007 6.23821 5.32245 6.99978 5.32245 7.96295C5.32245 8.62653 5.04246 9.4021 4.51048 9.64289L3.8917 9.12491C4.07022 8.98406 4.21564 8.80575 4.31772 8.60256C4.4198 8.39937 4.47604 8.17625 4.48248 7.94895C4.48248 7.52056 4.26969 7.19577 3.8777 7.19577C2.85853 7.19577 3.11053 9.5337 1.42778 9.5337" fill="white"/>
<path d="M0.0838305 4.35665V0.100788H0.932202V1.77513H5.24966V2.6823H0.932202V4.35665H0.0838305Z" fill="white"/>
</svg>
