<svg width="26" height="27" viewBox="0 0 26 27" fill="none" xmlns="http://www.w3.org/2000/svg">
<path fill-rule="evenodd" clip-rule="evenodd" d="M19.0906 13.7064C17.1852 16.4175 13.4428 17.0706 10.7317 15.1652C8.0206 13.2597 7.36748 9.5173 9.2729 6.80621C11.1783 4.09512 14.9208 3.442 17.6318 5.34742C20.3429 7.25285 20.9961 10.9953 19.0906 13.7064ZM20.7269 14.8564C18.1864 18.4712 13.1965 19.342 9.58166 16.8014C5.96688 14.2609 5.09605 9.27097 7.63661 5.65618C10.1772 2.0414 15.1671 1.17057 18.7819 3.71113C22.3967 6.2517 23.2675 11.2416 20.7269 14.8564Z" fill="black"/>
<path d="M9.62979 15.1111L3.38354 23.9985L4.9095 25.071L11.1557 16.1836L9.62979 15.1111Z" fill="black"/>
</svg>
