<svg width="16" height="10" viewBox="0 0 16 10" fill="none" xmlns="http://www.w3.org/2000/svg">
<path fill-rule="evenodd" clip-rule="evenodd" d="M13.6224 6.1128C14.0721 6.61725 14.5536 7.08955 14.9889 7.60796C15.3054 7.9851 15.5984 8.39439 15.8492 8.82503C16.1663 9.36986 15.9704 9.88304 15.3777 9.97453C15.0051 10.0316 13.1841 9.97492 13.09 9.97453C12.6004 9.97214 12.1713 9.78721 11.8256 9.42547C11.4414 9.02269 11.0919 8.58104 10.7229 8.16085C10.6117 8.03421 10.4931 7.91274 10.365 7.80696C10.0633 7.55646 9.76693 7.61208 9.62578 7.99773C9.50534 8.32904 9.4011 9.19911 9.3963 9.27319C9.37094 9.66185 9.14371 9.90957 8.74373 9.93343C7.5887 10.0017 6.4696 9.86151 5.42703 9.25389C4.5434 8.73899 3.83767 8.01118 3.22641 7.16213C2.25552 5.81386 1.48849 4.33177 0.788386 2.80597C0.752601 2.728 0.0432922 1.08618 0.0243262 1.00865C-0.0391665 0.749025 0.0199298 0.500917 0.221655 0.415489C0.347464 0.362263 2.68565 0.415489 2.72461 0.417713C3.09764 0.439627 3.35202 0.610816 3.50916 1.03228C3.95591 2.23239 4.52203 3.36387 5.26769 4.37955C5.3665 4.5147 5.49114 4.63483 5.62252 4.73277C5.81422 4.87599 5.99514 4.82577 6.07326 4.587C6.15572 4.3365 6.23137 3.82883 6.23598 3.5657C6.24814 2.87833 6.23398 2.42794 6.20024 1.7414C6.17806 1.30169 6.03451 0.915654 5.44002 0.799192C5.25649 0.763096 5.23931 0.598636 5.35735 0.434621C5.60274 0.0931314 5.94484 0.0387934 6.31588 0.0172696C6.91691 -0.018103 7.5204 0.0107624 8.1223 0.0172696C8.36748 0.0196611 8.61414 0.041185 8.85553 0.0985263C9.17065 0.173053 9.33919 0.413542 9.39113 0.747913C9.41807 0.92066 9.43188 1.09791 9.42809 1.27261C9.4125 2.02277 9.37917 2.77271 9.37135 3.52249C9.36798 3.81687 9.38776 4.11843 9.44563 4.40519C9.5265 4.80469 9.77654 4.90485 10.0321 4.61637C10.3569 4.24963 10.6432 3.83728 10.9118 3.41821C11.3998 2.65631 11.7645 1.81982 12.0782 0.95759C12.2405 0.512652 12.365 0.415934 12.8049 0.414877C13.6318 0.412708 14.4587 0.41204 15.2857 0.414877C15.4322 0.415489 15.5856 0.430728 15.7242 0.478503C15.9486 0.556534 16.0379 0.755755 15.9854 1.00881C15.8626 1.60153 15.568 2.10531 15.2527 2.58956C14.7467 3.3667 14.2165 4.12516 13.6985 4.89312C13.6326 4.99112 13.5743 5.0954 13.5202 5.2014C13.3265 5.58205 13.3398 5.79562 13.6224 6.1128Z" fill="white"/>
</svg>
