<svg width="122" height="550" viewBox="0 0 122 550" fill="none" xmlns="http://www.w3.org/2000/svg">
<path d="M33.1908 213.737C15.7047 213.737 1.05927 200.102 1.05927 177.44C0.742176 171.284 1.69991 165.129 3.87244 159.361C6.04498 153.593 9.38548 148.336 13.6846 143.919L28.835 155.156C26.002 157.721 23.7485 160.861 22.2245 164.366C20.7006 167.871 19.9413 171.661 19.9973 175.483C19.9973 185.646 25.1737 191.769 32.6226 191.769C56.737 191.769 49.0987 139.058 87.8585 139.058C107.87 139.374 121 156.545 121 178.26C121 193.221 114.687 210.707 102.693 216.136L88.7423 204.458C92.7671 201.282 96.0459 197.262 98.3474 192.681C100.649 188.1 101.917 183.069 102.062 177.945C102.062 168.286 97.2644 160.963 88.4266 160.963C65.4485 160.963 71.1299 213.674 33.1908 213.674M119.359 420.098V439.226L35.1478 467.317L119.359 494.967V514.22L2.89008 549.003V526.025L85.9017 502.605L2.89008 476.66V456.333L86.0279 429.757L2.89008 406.463V386.83L119.359 420.098ZM2.89008 336.645V269.225H22.0175V316.128H50.9926V274.212H70.12V316.128H100.231V267.584H119.359V336.645H2.89008ZM2.89008 96.9526V1H22.0175V38.7498H119.359V59.2028H22.0175V96.9526H2.89008Z" stroke="white" stroke-opacity="0.37"/>
</svg>
